<svg width="16" height="16" viewBox="0 0 16 16" fill="none" xmlns="http://www.w3.org/2000/svg">
<path d="M10.5435 16C10.3957 16 10.27 15.9482 10.1664 15.8446C10.0627 15.7411 10.0109 15.6154 10.0109 15.4676V14.3425C9.63329 14.3026 9.27663 14.217 8.94089 14.0856C8.605 13.9542 8.29392 13.7715 8.00763 13.5375L7.05423 14.4989C6.94317 14.5977 6.81585 14.65 6.67228 14.656C6.52886 14.6618 6.40189 14.6092 6.29139 14.4983C6.18626 14.3927 6.13369 14.2669 6.13369 14.1208C6.13369 13.9748 6.18626 13.8492 6.29139 13.7441L7.26577 12.7757C7.20049 12.68 7.13648 12.5827 7.07374 12.4838C7.01114 12.3849 6.95306 12.2832 6.8995 12.1788L6.22992 10.8468C6.21353 10.8124 6.19495 10.7793 6.17418 10.7476C6.15341 10.7158 6.13122 10.6837 6.10762 10.6512L4.86681 11.8918C4.7573 11.9906 4.62977 12.0443 4.48422 12.0529C4.33854 12.0615 4.21044 12.0106 4.09994 11.9001C3.99495 11.7949 3.94245 11.6699 3.94245 11.5251C3.94245 11.3801 3.99495 11.2551 4.09994 11.1501L5.34881 9.88814C5.31814 9.86454 5.28649 9.8432 5.25385 9.82413C5.22121 9.80519 5.18765 9.78576 5.15317 9.76584L3.82121 9.1005C3.72809 9.04977 3.63878 9.00066 3.55329 8.95318C3.46766 8.9057 3.38394 8.84953 3.30212 8.78467L2.43351 9.65329C2.32244 9.75206 2.19513 9.80434 2.05156 9.81014C1.90813 9.81607 1.78117 9.76379 1.67067 9.65329C1.56554 9.54815 1.51297 9.42317 1.51297 9.27833C1.51297 9.13335 1.56554 9.00836 1.67067 8.90337L2.51787 8.05596C2.27906 7.76472 2.08597 7.44459 1.93858 7.09557C1.79106 6.74668 1.69737 6.37787 1.65753 5.98914H0.532443C0.384637 5.98914 0.258944 5.93728 0.155367 5.83356C0.0517889 5.72998 0 5.60196 0 5.44949C0 5.30055 0.0517889 5.17571 0.155367 5.07495C0.258944 4.9742 0.384637 4.92383 0.532443 4.92383H1.69462C1.75255 4.60108 1.84546 4.296 1.97335 4.00858C2.10123 3.72131 2.26154 3.45318 2.45428 3.2042L1.59881 2.34873C1.49382 2.24374 1.44133 2.11875 1.44133 1.97377C1.44133 1.82893 1.49382 1.70394 1.59881 1.59881C1.70395 1.49382 1.82893 1.44133 1.97377 1.44133C2.11875 1.44133 2.24374 1.49382 2.34873 1.59881L3.19614 2.45428C3.44498 2.26154 3.71445 2.10123 4.00456 1.97335C4.29466 1.84546 4.60108 1.75255 4.92383 1.69462V0.532443C4.92383 0.381245 4.97569 0.254706 5.07941 0.152824C5.18298 0.0509415 5.31101 0 5.46348 0C5.61241 0 5.73726 0.0509415 5.83801 0.152824C5.93876 0.254706 5.98914 0.381245 5.98914 0.532443V1.65753C6.38084 1.69737 6.75255 1.79191 7.10426 1.94113C7.45597 2.09035 7.78027 2.28966 8.07715 2.53907L8.93262 1.6836C9.03832 1.57861 9.1643 1.52611 9.31055 1.52611C9.4568 1.52611 9.58242 1.57861 9.68741 1.6836C9.79254 1.78873 9.84511 1.91371 9.84511 2.05855C9.84511 2.20353 9.79254 2.32852 9.68741 2.43351L8.79782 3.32332C8.85392 3.40231 8.90818 3.48102 8.9606 3.55944C9.01303 3.63787 9.05966 3.72512 9.1005 3.82121L9.75821 5.11459C9.77446 5.14723 9.79212 5.17987 9.8112 5.21252C9.83013 5.24516 9.85048 5.27504 9.87224 5.30217L11.0522 4.10821C11.1579 4.00307 11.2839 3.95051 11.4301 3.95051C11.5764 3.95051 11.702 4.00328 11.807 4.10884C11.9121 4.2144 11.9647 4.34023 11.9647 4.48634C11.9647 4.63231 11.9121 4.75786 11.807 4.86299L10.5957 6.06417C10.6283 6.09497 10.6632 6.12126 10.7004 6.14302C10.7374 6.16464 10.7759 6.18456 10.8159 6.20279L12.1788 6.89951C12.2897 6.96436 12.3991 7.02951 12.5069 7.09493C12.6147 7.16021 12.7181 7.23129 12.817 7.30816L13.7784 6.35498C13.8834 6.24985 14.0084 6.19728 14.1534 6.19728C14.2982 6.19728 14.4232 6.25006 14.5284 6.35562C14.6334 6.46117 14.6858 6.587 14.6858 6.73312C14.6858 6.87909 14.6334 7.00464 14.5284 7.10977L13.5669 8.05808C13.7851 8.33532 13.9589 8.64019 14.0883 8.97268C14.2179 9.30504 14.3026 9.6511 14.3425 10.0109H15.4676C15.6188 10.0109 15.7453 10.0618 15.8472 10.1637C15.9491 10.2657 16 10.3923 16 10.5435C16 10.6913 15.9491 10.817 15.8472 10.9206C15.7453 11.0243 15.6188 11.0762 15.4676 11.0762H14.3054C14.2474 11.3989 14.1574 11.7032 14.0351 11.9891C13.9129 12.2751 13.7572 12.5443 13.568 12.7969L14.38 13.6169C14.485 13.7226 14.5375 13.8486 14.5375 13.9949C14.5375 14.1411 14.4847 14.2667 14.3791 14.3717C14.2682 14.4705 14.141 14.5229 13.9976 14.5288C13.8543 14.5346 13.7274 14.4822 13.6169 14.3717L12.8039 13.5457C12.555 13.7385 12.2855 13.8988 11.9954 14.0267C11.7053 14.1545 11.3989 14.2474 11.0762 14.3054V15.4676C11.0762 15.6154 11.0252 15.7411 10.9233 15.8446C10.8213 15.9482 10.6947 16 10.5435 16ZM10.4163 13.2935C11.3105 13.2935 12.0421 12.9572 12.6112 12.2848C13.1802 11.6123 13.3935 10.8376 13.2511 9.96084C13.1722 9.50075 12.9993 9.08771 12.7322 8.72172C12.4651 8.35574 12.1204 8.06804 11.6979 7.85862L10.2989 7.13796C9.992 6.97871 9.71673 6.77629 9.47312 6.53069C9.22951 6.28524 9.02582 6.00871 8.86204 5.70108L8.14138 4.30215C7.89791 3.80786 7.54754 3.41835 7.09027 3.13361C6.633 2.84888 6.1308 2.70652 5.58366 2.70652C4.68947 2.70652 3.95786 3.04275 3.38881 3.71523C2.81977 4.38771 2.60647 5.16235 2.74891 6.03916C2.82776 6.49925 3.00072 6.91229 3.26778 7.27828C3.53485 7.64426 3.87964 7.93196 4.30215 8.14138L5.70108 8.85335C6.01168 9.01501 6.28934 9.21941 6.53409 9.46655C6.77869 9.71384 6.98288 9.99129 7.14665 10.2989L7.85862 11.6979C8.10209 12.1921 8.45246 12.5817 8.90973 12.8664C9.367 13.1511 9.8692 13.2935 10.4163 13.2935ZM5.8804 6.59789C6.19566 6.59789 6.46329 6.48781 6.68331 6.26765C6.90346 6.0475 7.01629 5.77979 7.02181 5.46454C7.02181 5.14942 6.91038 4.88045 6.68754 4.65761C6.4647 4.43476 6.19566 4.32059 5.8804 4.31508C5.56515 4.31508 5.29751 4.4265 5.0775 4.64934C4.85734 4.87218 4.74451 5.14123 4.739 5.45648C4.74451 5.77174 4.85734 6.03937 5.0775 6.25939C5.29751 6.47954 5.56515 6.59237 5.8804 6.59789ZM10.1196 11.8316C10.3619 11.8316 10.5666 11.7482 10.7334 11.5813C10.9003 11.4144 10.9838 11.2098 10.9838 10.9674C10.9838 10.7251 10.9003 10.5205 10.7334 10.3536C10.5666 10.1867 10.3619 10.1033 10.1196 10.1033C9.87726 10.1033 9.67264 10.1867 9.50576 10.3536C9.33888 10.5205 9.25544 10.7251 9.25544 10.9674C9.25544 11.2098 9.33888 11.4144 9.50576 11.5813C9.67264 11.7482 9.87726 11.8316 10.1196 11.8316Z" fill="#2D2D2D"/>
</svg>