<svg width="18" height="18" viewBox="0 0 18 18" fill="none" xmlns="http://www.w3.org/2000/svg">
<path d="M9.95245 10.1415C11.7493 9.79947 12.7389 9.60403 14.1168 10.1415C17.9058 11.6195 17.5269 4.22953 12.98 2.01261C8.56035 -0.142299 7.72072 0.495679 4.54528 2.90847L4.26521 3.12114C0.85506 5.70757 -0.281696 7.55502 1.61287 10.1415C2.4789 11.3238 5.16323 11.1164 7.32772 10.6839M9.95245 10.1415C9.44461 10.2381 8.93528 10.3465 8.43316 10.4534C8.05952 10.5329 7.68985 10.6115 7.32772 10.6839M9.95245 10.1415H10.359C10.359 10.1415 11.0855 16.0533 10.359 16.4228C9.63243 16.7924 8.43316 16.7923 7.32772 16.4228C6.22228 16.0534 7.32772 10.6839 7.32772 10.6839" stroke="#2D2D2D" stroke-width="1.4"/>
</svg>
