<svg width="16" height="16" viewBox="0 0 16 16" fill="none" xmlns="http://www.w3.org/2000/svg">
<path d="M8 16C7.02788 16 6.1574 15.7271 5.38856 15.1812C4.61972 14.6353 4.00653 13.9313 3.54901 13.0693L1.35093 14.3168L0.746641 13.2759L3.0551 11.9474C2.98151 11.7055 2.91851 11.4593 2.86609 11.2086C2.81367 10.958 2.77143 10.7056 2.73937 10.4514H0V9.24658H2.73023C2.74995 8.95837 2.78802 8.6736 2.84445 8.39227C2.90104 8.11093 2.97125 7.834 3.0551 7.56146L0.737503 6.2137L1.34155 5.1822L3.52496 6.45347C3.65353 6.2105 3.79853 5.98008 3.95996 5.76221C4.12123 5.54433 4.29028 5.33789 4.4671 5.14287C4.44113 5.03258 4.4223 4.927 4.41059 4.82613C4.39889 4.72527 4.39304 4.61977 4.39304 4.50963C4.39304 4.07916 4.46887 3.66819 4.62052 3.27673C4.77217 2.88542 4.9837 2.53239 5.2551 2.21765L3.88061 0.86318L4.72223 0L6.19339 1.43504C6.46592 1.26192 6.75191 1.13164 7.05137 1.04421C7.35083 0.956771 7.66704 0.913052 8 0.913052C8.33296 0.913052 8.6515 0.959168 8.9556 1.0514C9.25987 1.14347 9.54619 1.27399 9.81454 1.44295L11.2778 0L12.1194 0.86318L10.7358 2.24283C10.9963 2.55757 11.2026 2.90748 11.3547 3.29255C11.5068 3.67763 11.5829 4.08332 11.5829 4.50963C11.5829 4.61977 11.5803 4.72231 11.575 4.81726C11.5695 4.91205 11.5559 5.0126 11.5341 5.1189C11.7109 5.31391 11.8758 5.52012 12.0287 5.73751C12.1817 5.95506 12.3224 6.1874 12.451 6.43453L14.6399 5.19682L15.244 6.22856L12.937 7.54227C13.0232 7.80251 13.0938 8.06562 13.1486 8.3316C13.2036 8.59775 13.244 8.87197 13.2698 9.15426H16V10.3594H13.2698C13.244 10.6311 13.2044 10.9011 13.1512 11.1693C13.098 11.4375 13.0292 11.7018 12.9449 11.962L15.2625 13.2999L14.6585 14.3314L12.4604 13.0602C12.0028 13.9221 11.3881 14.6275 10.616 15.1766C9.84412 15.7255 8.97212 16 8 16ZM5.62494 4.21328C5.97602 3.98613 6.35058 3.8127 6.74863 3.69297C7.14667 3.5734 7.5638 3.51362 8 3.51362C8.42995 3.51362 8.84171 3.57261 9.23526 3.69057C9.62882 3.8087 9.99906 3.97494 10.346 4.1893C10.2721 3.62695 10.0077 3.1411 9.55292 2.73172C9.09812 2.32251 8.58048 2.11791 8 2.11791C7.4176 2.11791 6.89563 2.32387 6.4341 2.7358C5.97273 3.14773 5.70301 3.64022 5.62494 4.21328ZM8 14.7951C9.20072 14.7951 10.1827 14.2757 10.9459 13.2369C11.7093 12.198 12.091 11.038 12.091 9.75681C12.091 8.59695 11.7334 7.46723 11.0181 6.36763C10.3029 5.2682 9.2969 4.71848 8 4.71848C6.7023 4.71848 5.69603 5.26692 4.98121 6.36379C4.26639 7.46051 3.90898 8.59152 3.90898 9.75681C3.90898 11.038 4.29068 12.198 5.05407 13.2369C5.81731 14.2757 6.79928 14.7951 8 14.7951ZM7.39571 12.3943V7.34998H8.60429V12.3943H7.39571Z" fill="#2D2D2D"/>
</svg>