<svg width="17" height="14" viewBox="0 0 17 14" fill="none" xmlns="http://www.w3.org/2000/svg">
<path d="M10.0437 11.8465C10.0437 11.8465 9.06202 13.1358 7.00944 13.3937C4.95686 13.6516 1.11946 12.792 0.762489 10.3852C0.405521 7.97834 0.316278 6.94685 1.11946 4.54002C1.92264 2.1332 3.88597 0.5 7.45565 0.5C11.0253 0.5 12.6317 1.01575 14.4165 3.1647C16.2014 5.31365 17.54 12.792 15.3982 13.3937C13.2564 13.9954 10.0437 11.8465 10.0437 11.8465ZM10.0437 11.8465C10.0437 11.8465 10.7447 10.4961 10.984 9.0958M6.65247 8.23622C6.65247 8.23622 7.00944 7.72047 7.45565 7.72047C7.90186 7.72047 8.16959 8.23622 8.16959 8.75197C8.16959 9.26771 8.16959 10.3852 7.00944 10.3852C5.84929 10.3852 5.31384 8.75197 5.31384 8.75197C5.31384 8.75197 4.59991 7.29068 5.67081 6.51706C5.93629 6.32527 6.13048 6.18103 6.29551 6.07255M13.4349 8.75197C13.4349 8.75197 12.6369 8.66601 12.1855 8.75197C11.7341 8.83792 10.984 9.0958 10.984 9.0958M10.984 9.0958C11.0642 8.62665 11.0925 8.15191 11.0253 7.72047C10.9433 7.19366 10.7858 6.80406 10.5632 6.51706M12.1855 5.31365C12.1855 5.31365 11.6553 5.48556 11.2931 5.74344C10.9309 6.00131 10.5632 6.51706 10.5632 6.51706M10.5632 6.51706C10.1481 5.98192 9.50656 5.80345 8.70505 5.75718M8.70505 3.7664C8.70505 3.7664 8.5318 4.28215 8.52657 4.71194C8.52134 5.14173 8.70505 5.75718 8.70505 5.75718M8.70505 5.75718C8.53366 5.74729 8.35496 5.74344 8.16959 5.74344C7.02858 5.74344 6.79619 5.74344 6.29551 6.07255M5.31384 4.71194C5.31384 4.71194 5.40832 5.22769 5.67081 5.57152C5.9333 5.91535 6.29551 6.07255 6.29551 6.07255" stroke="#2D2D2D"/>
</svg>