<svg width="16" height="15" viewBox="0 0 16 15" fill="none" xmlns="http://www.w3.org/2000/svg">
<path d="M2.91113 0.5C3.37246 0.500029 3.72705 0.645439 4.01172 0.924805C4.29399 1.20191 4.44043 1.55 4.44043 2.00781C4.44035 2.33889 4.3577 2.70537 4.17383 3.1123C3.98436 3.53158 3.5988 4.18726 2.99805 5.09375V5.09473C2.4069 5.98864 1.98336 6.7228 1.74512 7.28613C1.50366 7.85665 1.375 8.42164 1.375 8.97656C1.37507 9.38996 1.48986 9.77257 1.75 10.0859C2.00943 10.3986 2.3585 10.5801 2.77148 10.5801C3.05321 10.5801 3.32259 10.5043 3.57422 10.3701C3.82609 10.2358 4.08338 10.0223 4.34277 9.75879L4.3418 9.75781C4.54366 9.5563 4.76415 9.31396 5.00098 9.03125C5.2362 8.75044 5.51679 8.40538 5.8418 7.99805L5.84277 7.99707C6.77746 6.81873 7.56368 6.0302 8.20215 5.59375C8.8255 5.1676 9.47572 4.96194 10.1631 4.96191C10.9084 4.96191 11.4821 5.22878 11.9287 5.76562V5.7666C12.3866 6.31714 12.6724 7.10209 12.7383 8.17188L12.7588 8.51953L13.0928 8.62012L14.0293 8.90332L13.1279 9.10449L12.7617 9.18652L12.7383 9.56055C12.6365 11.1567 12.2644 12.3747 11.6621 13.2529C11.0703 14.1159 10.3622 14.4999 9.51855 14.5C8.92871 14.5 8.47665 14.3069 8.12012 13.9326C7.7627 13.5572 7.56935 13.0671 7.56934 12.417C7.56934 11.5205 7.94714 10.7119 8.77051 9.97656C9.59584 9.23967 10.6116 8.80677 11.8408 8.68848L12.3242 8.64258L12.292 8.1582C12.2384 7.34108 12.0624 6.65018 11.6973 6.16602C11.3088 5.65143 10.7431 5.41317 10.0801 5.41309C9.399 5.41309 8.76013 5.65035 8.17383 6.08887C7.60352 6.5156 6.92521 7.25883 6.14258 8.27734L6.1416 8.27832C5.28169 9.4037 4.60939 10.1329 4.11914 10.5078C3.64862 10.8673 3.17507 11.0312 2.68848 11.0312C2.1303 11.0312 1.72763 10.8472 1.42578 10.5C1.11721 10.1448 0.9375 9.64168 0.9375 8.93555C0.937508 8.45336 1.07119 7.86678 1.36914 7.16602C1.66637 6.46663 2.15893 5.57617 2.8584 4.48926C3.24071 3.93142 3.52841 3.45781 3.70898 3.07617C3.88803 2.69737 4.00195 2.32501 4.00195 1.97754C4.00187 1.73936 3.93671 1.49829 3.76953 1.30273L3.69141 1.22168L3.60547 1.15137C3.39835 1.00111 3.15212 0.951172 2.91992 0.951172C2.57841 0.95118 2.25333 1.07606 1.9541 1.26953C1.95279 1.2703 1.94546 1.27527 1.92871 1.28418C1.90925 1.29453 1.88303 1.30732 1.85059 1.32324C1.78566 1.3551 1.70266 1.394 1.60449 1.43945C1.54477 1.46711 1.47897 1.49667 1.41016 1.52832C1.51676 1.34901 1.61818 1.18498 1.71094 1.04883C1.77686 0.952079 1.83271 0.877411 1.87793 0.825195C1.92981 0.765328 1.9424 0.764945 1.91699 0.779297C2.25564 0.587972 2.58509 0.5 2.91113 0.5ZM11.7568 9.13965C10.7595 9.25005 9.88681 9.61743 9.15625 10.2461C8.42909 10.8718 8.00781 11.6155 8.00781 12.4707C8.00785 12.8974 8.12761 13.2949 8.41895 13.6025C8.71852 13.9188 9.12092 14.0488 9.55371 14.0488C10.4039 14.0488 11.0559 13.5301 11.5254 12.7197C11.9945 11.9097 12.2461 10.8808 12.3115 9.66406L12.3428 9.0752L11.7568 9.13965Z" stroke="#2D2D2D"/>
</svg>
