<svg width="28" height="28" viewBox="0 0 28 28" fill="none" xmlns="http://www.w3.org/2000/svg">
<path d="M12.2251 19.725C12.2251 18.8195 12.3741 17.9665 12.6721 17.166C12.9703 16.3657 13.386 15.6398 13.9193 14.9885L12.2078 13.252C12.0693 13.1157 12.0001 12.9422 12.0001 12.7315C12.0001 12.5208 12.0693 12.3462 12.2078 12.2077C12.3462 12.0692 12.5208 12 12.7316 12C12.9423 12 13.1157 12.0692 13.2518 12.2077L14.9636 13.9192C15.6148 13.3859 16.3447 12.9702 17.1533 12.6722C17.9622 12.3741 18.8194 12.225 19.7251 12.225C21.8188 12.225 23.5922 12.9516 25.0453 14.4048C26.4985 15.8579 27.2251 17.6313 27.2251 19.725L27.2251 27.225L19.7251 27.225C17.6313 27.225 15.8578 26.4984 14.4048 25.0452C12.9517 23.5921 12.2251 21.8187 12.2251 19.725ZM13.7251 19.725C13.7251 21.3917 14.3084 22.8083 15.4751 23.975C16.6418 25.1417 18.0584 25.725 19.7251 25.725L25.7251 25.725L25.7251 19.725C25.7251 18.0583 25.1418 16.6417 23.9751 15.475C22.8084 14.3083 21.3918 13.725 19.7251 13.725C19.0303 13.725 18.3693 13.8378 17.7423 14.0635C17.1153 14.2892 16.5506 14.6026 16.0481 15.0037L21.2518 20.2078C21.3903 20.3441 21.4596 20.5176 21.4596 20.7283C21.4596 20.9389 21.3894 21.1144 21.2491 21.2547C21.0959 21.4079 20.9187 21.4845 20.7173 21.4845C20.516 21.4845 20.3378 21.407 20.1828 21.252L14.9886 16.048C14.5873 16.5507 14.2763 17.1154 14.0558 17.7422C13.8353 18.3692 13.7251 19.0302 13.7251 19.725Z" fill="#1C1B1F"/>
<path d="M15 7.5001C15 8.4056 14.851 9.2586 14.553 10.0591C14.2548 10.8594 13.8391 11.5853 13.3057 12.2366L15.0172 13.9731C15.1557 14.1094 15.225 14.2829 15.225 14.4936C15.225 14.7043 15.1557 14.8788 15.0172 15.0173C14.8789 15.1558 14.7043 15.2251 14.4935 15.2251C14.2828 15.2251 14.1094 15.1558 13.9733 15.0173L12.2615 13.3058C11.6103 13.8392 10.8804 14.2548 10.0717 14.5528C9.26292 14.851 8.40567 15.0001 7.5 15.0001C5.40633 15.0001 3.63292 14.2735 2.17975 12.8203C0.726583 11.3672 -2.46153e-07 9.59376 -3.3767e-07 7.5001L-6.65506e-07 9.72748e-05L7.5 9.69469e-05C9.59383 9.68554e-05 11.3672 0.72668 12.8202 2.17985C14.2734 3.63301 15 5.40643 15 7.5001ZM13.5 7.5001C13.5 5.83343 12.9167 4.41676 11.75 3.2501C10.5833 2.08343 9.16667 1.5001 7.5 1.5001L1.5 1.5001L1.5 7.5001C1.5 9.16676 2.08333 10.5834 3.25 11.7501C4.41667 12.9168 5.83333 13.5001 7.5 13.5001C8.19483 13.5001 8.85575 13.3873 9.48275 13.1616C10.1097 12.9359 10.6745 12.6225 11.177 12.2213L5.97325 7.01735C5.83475 6.88101 5.7655 6.70751 5.7655 6.49685C5.7655 6.28618 5.83567 6.11068 5.976 5.97035C6.12917 5.81718 6.30642 5.7406 6.50775 5.7406C6.70908 5.7406 6.88725 5.8181 7.04225 5.9731L12.2365 11.1771C12.6378 10.6744 12.9487 10.1097 13.1692 9.48285C13.3897 8.85585 13.5 8.19493 13.5 7.5001Z" fill="#1C1B1F"/>
</svg>
