<svg width="17" height="17" viewBox="0 0 17 17" fill="none" xmlns="http://www.w3.org/2000/svg">
<path d="M7.49025 16.9615V9.025C6.48775 9.025 5.52683 8.83525 4.6075 8.45575C3.68833 8.07625 2.87617 7.53392 2.171 6.82875C1.466 6.12358 0.927917 5.3095 0.55675 4.3865C0.185583 3.4635 0 2.50133 0 1.5V0H1.5C2.48383 0 3.43642 0.191667 4.35775 0.575C5.27925 0.958167 6.09133 1.50175 6.794 2.20575C7.31717 2.72892 7.74633 3.31325 8.0815 3.95875C8.41683 4.60425 8.65692 5.28983 8.80175 6.0155C8.91708 5.8155 9.04558 5.626 9.18725 5.447C9.32892 5.26817 9.487 5.09158 9.6615 4.91725C10.3657 4.21325 11.1794 3.66967 12.1027 3.2865C13.0261 2.90317 13.9886 2.7115 14.9902 2.7115H16.4902V4.2115C16.4902 5.21333 16.2985 6.176 15.915 7.0995C15.5315 8.023 14.9876 8.837 14.2832 9.5415C13.5789 10.2458 12.7713 10.7836 11.8605 11.1547C10.9495 11.5259 9.99275 11.7115 8.99025 11.7115V16.9615H7.49025ZM7.5 7.5C7.5 6.7 7.34583 5.9375 7.0375 5.2125C6.72917 4.4875 6.29167 3.84167 5.725 3.275C5.15833 2.70833 4.5125 2.27083 3.7875 1.9625C3.0625 1.65417 2.3 1.5 1.5 1.5C1.5 2.3 1.65 3.06667 1.95 3.8C2.25 4.53333 2.68333 5.18333 3.25 5.75C3.81667 6.31667 4.46667 6.75 5.2 7.05C5.93333 7.35 6.7 7.5 7.5 7.5ZM8.99025 10.2115C9.79025 10.2115 10.5527 10.0615 11.2778 9.7615C12.0028 9.4615 12.6486 9.02817 13.2153 8.4615C13.7819 7.89483 14.2194 7.24483 14.5278 6.5115C14.8361 5.77817 14.9902 5.0115 14.9902 4.2115C14.1902 4.2115 13.4236 4.36567 12.6902 4.674C11.9569 4.98233 11.3069 5.41983 10.7402 5.9865C10.1736 6.55317 9.74025 7.199 9.44025 7.924C9.14025 8.649 8.99025 9.4115 8.99025 10.2115Z" fill="#1C1B1F"/>
</svg>
