<svg width="19" height="19" viewBox="0 0 19 19" fill="none" xmlns="http://www.w3.org/2000/svg">
<path d="M4 19V14.923C3.36933 14.6525 2.80817 14.2942 2.3165 13.848C1.82483 13.4018 1.4065 12.8948 1.0615 12.327C0.716667 11.759 0.453583 11.1493 0.27225 10.498C0.09075 9.84683 0 9.18083 0 8.5C0 6.00767 0.886583 3.96792 2.65975 2.38075C4.43292 0.793583 6.71275 0 9.49925 0C12.2856 0 14.5657 0.793583 16.3395 2.38075C18.1132 3.96792 19 6.00767 19 8.5C19 9.18083 18.9093 9.84683 18.7278 10.498C18.5464 11.1493 18.2833 11.759 17.9385 12.327C17.5935 12.8948 17.1752 13.4018 16.6835 13.848C16.1918 14.2942 15.6307 14.6531 15 14.9248V19H4ZM5.5 17.5H6.7115V15.7308H8.48075V17.5H10.5193V15.7308H12.2885V17.5H13.5V13.95C14.1205 13.7808 14.6766 13.5196 15.1683 13.1663C15.6599 12.8131 16.0787 12.3963 16.4245 11.916C16.7703 11.4355 17.0361 10.9053 17.2218 10.3255C17.4072 9.74567 17.5 9.13717 17.5 8.5C17.5 6.41667 16.7625 4.72917 15.2875 3.4375C13.8125 2.14583 11.8833 1.5 9.5 1.5C7.11667 1.5 5.1875 2.14583 3.7125 3.4375C2.2375 4.72917 1.5 6.41667 1.5 8.5C1.5 9.13717 1.59275 9.74567 1.77825 10.3255C1.96392 10.9053 2.22967 11.4355 2.5755 11.916C2.92133 12.3963 3.34267 12.8131 3.8395 13.1663C4.33617 13.5196 4.88967 13.7808 5.5 13.95V17.5ZM8.09625 12.5H10.9038L9.5 9.69225L8.09625 12.5ZM6.00175 10.3077C6.49925 10.3077 6.92458 10.1306 7.27775 9.77625C7.63108 9.42192 7.80775 8.99592 7.80775 8.49825C7.80775 8.00075 7.63058 7.57542 7.27625 7.22225C6.92192 6.86892 6.49592 6.69225 5.99825 6.69225C5.50075 6.69225 5.07542 6.86942 4.72225 7.22375C4.36892 7.57808 4.19225 8.00408 4.19225 8.50175C4.19225 8.99925 4.36942 9.42458 4.72375 9.77775C5.07808 10.1311 5.50408 10.3077 6.00175 10.3077ZM13.0017 10.3077C13.4993 10.3077 13.9246 10.1306 14.2778 9.77625C14.6311 9.42192 14.8077 8.99592 14.8077 8.49825C14.8077 8.00075 14.6306 7.57542 14.2762 7.22225C13.9219 6.86892 13.4959 6.69225 12.9983 6.69225C12.5007 6.69225 12.0754 6.86942 11.7223 7.22375C11.3689 7.57808 11.1923 8.00408 11.1923 8.50175C11.1923 8.99925 11.3694 9.42458 11.7238 9.77775C12.0781 10.1311 12.5041 10.3077 13.0017 10.3077Z" fill="#1C1B1F"/>
</svg>
