<svg width="19" height="19" viewBox="0 0 19 19" fill="none" xmlns="http://www.w3.org/2000/svg">
<path d="M9.48075 18.346C8.35258 18.2092 7.23208 17.9089 6.11925 17.4452C5.00642 16.9816 4.00642 16.3117 3.11925 15.4355C2.23208 14.5592 1.50483 13.4505 0.9375 12.1095C0.370333 10.7685 0.0642499 9.15508 0.0192499 7.26925L0 6.36525L0.88475 6.3845C1.65775 6.40367 2.50867 6.54567 3.4375 6.8105C4.36633 7.07517 5.19358 7.437 5.91925 7.896C6.06158 6.5525 6.44367 5.157 7.0655 3.7095C7.68733 2.26217 8.43475 1.02567 9.30775 0C10.1807 1.02567 10.9282 2.26542 11.55 3.71925C12.1718 5.17308 12.5539 6.57175 12.6962 7.91525C13.4026 7.47558 14.2137 7.11533 15.1298 6.8345C16.0457 6.55367 16.9063 6.40367 17.7115 6.3845L18.6155 6.36525L18.5963 7.28825C18.5706 8.99475 18.3173 10.4848 17.8365 11.7585C17.3558 13.0322 16.7072 14.1136 15.8905 15.0027C15.0738 15.8917 14.1193 16.6081 13.027 17.1518C11.9347 17.6953 10.7526 18.0933 9.48075 18.346ZM9.45 16.8153C9.26667 14.0486 8.44583 11.9569 6.9875 10.5402C5.52917 9.12358 3.71667 8.24858 1.55 7.91525C1.73333 10.7653 2.57917 12.8903 4.0875 14.2902C5.59583 15.6902 7.38333 16.5319 9.45 16.8153ZM9.30775 11.1193C9.54492 10.7269 9.84108 10.3188 10.1962 9.895C10.5514 9.47133 10.9053 9.11142 11.2578 8.81525C11.2373 7.82675 11.0562 6.795 10.7145 5.72C10.3728 4.645 9.90392 3.60625 9.30775 2.60375C8.71158 3.60625 8.24267 4.645 7.901 5.72C7.55933 6.795 7.37825 7.82675 7.35775 8.81525C7.71025 9.11142 8.06508 9.47133 8.42225 9.895C8.77925 10.3188 9.07442 10.7269 9.30775 11.1193ZM10.95 16.423C11.65 16.1908 12.3462 15.8703 13.0385 15.4615C13.7308 15.0525 14.3629 14.514 14.9348 13.846C15.5064 13.178 15.9853 12.3588 16.3713 11.3883C16.7571 10.4178 16.9885 9.26008 17.0655 7.91525C15.4732 8.14858 14.0661 8.69342 12.8443 9.54975C11.6224 10.4062 10.7141 11.4755 10.1193 12.7575C10.3193 13.2908 10.4869 13.8517 10.6223 14.4402C10.7574 15.0287 10.8667 15.6897 10.95 16.423Z" fill="#1C1B1F"/>
</svg>
