<svg width="30" height="32" viewBox="0 0 30 32" fill="none" xmlns="http://www.w3.org/2000/svg">
<path d="M21.725 31C20.8195 31 19.9665 30.851 19.166 30.553C18.3657 30.2548 17.6398 29.8391 16.9885 29.3057L15.252 31.0172C15.1157 31.1557 14.9422 31.225 14.7315 31.225C14.5208 31.225 14.3462 31.1557 14.2077 31.0172C14.0692 30.8789 14 30.7043 14 30.4935C14 30.2828 14.0692 30.1094 14.2077 29.9733L15.9193 28.2615C15.3859 27.6103 14.9702 26.8804 14.6722 26.0717C14.3741 25.2629 14.225 24.4057 14.225 23.5C14.225 21.4063 14.9516 19.6329 16.4048 18.1798C17.8579 16.7266 19.6313 16 21.725 16H29.225V23.5C29.225 25.5938 28.4984 27.3672 27.0452 28.8202C25.5921 30.2734 23.8187 31 21.725 31ZM21.725 29.5C23.3917 29.5 24.8083 28.9167 25.975 27.75C27.1417 26.5833 27.725 25.1667 27.725 23.5V17.5H21.725C20.0583 17.5 18.6417 18.0833 17.475 19.25C16.3083 20.4167 15.725 21.8333 15.725 23.5C15.725 24.1948 15.8378 24.8557 16.0635 25.4827C16.2892 26.1097 16.6026 26.6745 17.0037 27.177L22.2078 21.9732C22.3441 21.8347 22.5176 21.7655 22.7283 21.7655C22.9389 21.7655 23.1144 21.8357 23.2548 21.976C23.4079 22.1292 23.4845 22.3064 23.4845 22.5078C23.4845 22.7091 23.407 22.8872 23.252 23.0422L18.048 28.2365C18.5507 28.6378 19.1154 28.9487 19.7422 29.1692C20.3692 29.3897 21.0302 29.5 21.725 29.5Z" fill="#1C1B1F"/>
<path d="M20.069 15.9098C19.4287 16.5501 18.7202 17.0479 17.9434 17.4032C17.1667 17.7583 16.3595 17.9776 15.5218 18.061L15.5041 20.4991C15.5056 20.6935 15.4319 20.8651 15.2829 21.0141C15.134 21.163 14.9616 21.2375 14.7657 21.2375C14.5699 21.2376 14.3975 21.1632 14.2485 21.0141C14.0995 20.8651 14.0258 20.6935 14.0275 20.4993L14.0273 18.0787C13.1897 17.9954 12.3797 17.7732 11.5972 17.4121C10.8144 17.051 10.1028 16.5502 9.4624 15.9098C7.98195 14.4294 7.24173 12.6616 7.24173 10.6065C7.24173 8.55144 7.98195 6.78367 9.4624 5.30323L14.7657 -7.58291e-05L20.069 5.30322C21.5496 6.78379 22.2898 8.55155 22.2897 10.6065C22.2897 12.6616 21.5494 14.4294 20.069 15.9098ZM19.0083 14.8492C20.1869 13.6707 20.7761 12.2564 20.7761 10.6065C20.7761 8.95661 20.1869 7.5424 19.0083 6.36388L14.7657 2.12124L10.5231 6.36389C9.34455 7.5424 8.75529 8.95661 8.75529 10.6065C8.75529 12.2564 9.34455 13.6707 10.5231 14.8492C11.0144 15.3405 11.5615 15.728 12.1644 16.0118C12.7674 16.2956 13.3883 16.4733 14.0273 16.545L14.0275 9.18559C14.0259 8.99126 14.0997 8.81961 14.2486 8.67064C14.3976 8.52168 14.5713 8.4472 14.7698 8.4472C14.9864 8.4472 15.1659 8.51838 15.3082 8.66074C15.4506 8.80311 15.5218 8.98389 15.5218 9.20309L15.5149 16.5558C16.1541 16.4841 16.7733 16.3046 17.3724 16.0173C17.9717 15.7299 18.517 15.3405 19.0083 14.8492Z" fill="#1C1B1F"/>
<path d="M15 23.5001C15 24.4056 14.851 25.2586 14.553 26.0591C14.2548 26.8594 13.8391 27.5853 13.3057 28.2366L15.0172 29.9731C15.1557 30.1094 15.225 30.2829 15.225 30.4936C15.225 30.7043 15.1557 30.8788 15.0172 31.0173C14.8789 31.1558 14.7043 31.2251 14.4935 31.2251C14.2828 31.2251 14.1094 31.1558 13.9733 31.0173L12.2615 29.3058C11.6103 29.8392 10.8804 30.2548 10.0717 30.5528C9.26292 30.851 8.40567 31.0001 7.5 31.0001C5.40633 31.0001 3.63292 30.2735 2.17975 28.8203C0.726583 27.3672 -2.46153e-07 25.5938 -3.3767e-07 23.5001L-6.65506e-07 16.0001L7.5 16.0001C9.59383 16.0001 11.3672 16.7267 12.8202 18.1798C14.2734 19.633 15 21.4064 15 23.5001ZM13.5 23.5001C13.5 21.8334 12.9167 20.4168 11.75 19.2501C10.5833 18.0834 9.16667 17.5001 7.5 17.5001L1.5 17.5001L1.5 23.5001C1.5 25.1668 2.08333 26.5834 3.25 27.7501C4.41667 28.9168 5.83333 29.5001 7.5 29.5001C8.19483 29.5001 8.85575 29.3873 9.48275 29.1616C10.1097 28.9359 10.6745 28.6225 11.177 28.2213L5.97325 23.0173C5.83475 22.881 5.7655 22.7075 5.7655 22.4968C5.7655 22.2862 5.83567 22.1107 5.976 21.9703C6.12917 21.8172 6.30642 21.7406 6.50775 21.7406C6.70908 21.7406 6.88725 21.8181 7.04225 21.9731L12.2365 27.1771C12.6378 26.6744 12.9487 26.1097 13.1692 25.4828C13.3897 24.8558 13.5 24.1949 13.5 23.5001Z" fill="#1C1B1F"/>
</svg>
