<svg width="20" height="20" viewBox="0 0 20 20" fill="none" xmlns="http://www.w3.org/2000/svg">
<path d="M9.75 19.525C8.40133 19.525 7.13383 19.2691 5.9475 18.7572C4.76133 18.2453 3.7295 17.5505 2.852 16.673C1.9745 15.7955 1.27975 14.7637 0.76775 13.5775C0.255917 12.3912 0 11.1237 0 9.775C0 8.50583 0.244917 7.284 0.73475 6.1095C1.22442 4.93517 1.89942 3.89483 2.75975 2.9885C3.61992 2.082 4.64075 1.35733 5.82225 0.8145C7.00358 0.2715 8.28075 0 9.65375 0C9.95625 0 10.2658 0.0134999 10.5825 0.0404999C10.8993 0.0673332 11.2206 0.112834 11.5462 0.177C11.4474 0.927 11.5182 1.62092 11.7587 2.25875C11.9991 2.89658 12.3564 3.43308 12.8307 3.86825C13.3051 4.30358 13.8753 4.61575 14.5413 4.80475C15.2073 4.99392 15.9198 5.018 16.6788 4.877C16.3609 5.86033 16.4956 6.77317 17.0828 7.6155C17.6699 8.45767 18.4654 8.91792 19.4693 8.99625C19.4794 9.10908 19.4871 9.21417 19.4923 9.3115C19.4974 9.409 19.5 9.51417 19.5 9.627C19.5 10.9827 19.2434 12.2598 18.7303 13.4585C18.2171 14.6572 17.5206 15.707 16.6408 16.608C15.7611 17.509 14.7292 18.2204 13.5452 18.7423C12.3612 19.2641 11.0962 19.525 9.75 19.525ZM8.25475 7.67875C8.64258 7.67875 8.97275 7.541 9.24525 7.2655C9.51758 6.98983 9.65375 6.65808 9.65375 6.27025C9.65375 5.88242 9.51733 5.55225 9.2445 5.27975C8.9715 5.00742 8.64 4.87125 8.25 4.87125C7.86533 4.87125 7.53517 5.00767 7.2595 5.2805C6.984 5.5535 6.84625 5.885 6.84625 6.275C6.84625 6.65967 6.984 6.98983 7.2595 7.2655C7.53517 7.541 7.86692 7.67875 8.25475 7.67875ZM6.25475 12.6788C6.64258 12.6788 6.97275 12.541 7.24525 12.2655C7.51758 11.9898 7.65375 11.6581 7.65375 11.2703C7.65375 10.8824 7.51733 10.5522 7.2445 10.2797C6.9715 10.0074 6.64 9.87125 6.25 9.87125C5.86533 9.87125 5.53517 10.0077 5.2595 10.2805C4.984 10.5535 4.84625 10.885 4.84625 11.275C4.84625 11.6597 4.984 11.9898 5.2595 12.2655C5.53517 12.541 5.86692 12.6788 6.25475 12.6788ZM12.7548 13.6788C13.0093 13.6788 13.2228 13.591 13.3953 13.4155C13.5676 13.2398 13.6538 13.0248 13.6538 12.7703C13.6538 12.5157 13.5672 12.3022 13.394 12.1298C13.2208 11.9574 13.0062 11.8713 12.75 11.8713C12.4987 11.8713 12.2852 11.9578 12.1095 12.131C11.934 12.3042 11.8462 12.5188 11.8462 12.775C11.8462 13.0263 11.934 13.2398 12.1095 13.4155C12.2852 13.591 12.5002 13.6788 12.7548 13.6788ZM9.75175 18.025C11.8449 18.025 13.7023 17.2849 15.3238 15.8048C16.9451 14.3246 17.834 12.4435 17.9905 10.1615C17.1315 9.80133 16.4597 9.30133 15.975 8.6615C15.4903 8.02183 15.1839 7.27825 15.0557 6.43075C13.7276 6.27942 12.6036 5.75825 11.6837 4.86725C10.7637 3.97625 10.2275 2.857 10.075 1.5095C8.77367 1.45067 7.59483 1.66033 6.5385 2.1385C5.482 2.61667 4.581 3.25667 3.8355 4.0585C3.09 4.8605 2.51442 5.76533 2.10875 6.773C1.70292 7.78067 1.5 8.78133 1.5 9.775C1.5 12.0558 2.30483 14.001 3.9145 15.6105C5.524 17.2202 7.46975 18.025 9.75175 18.025Z" fill="#1C1B1F"/>
</svg>