<svg width="16" height="16" viewBox="0 0 16 16" fill="none" xmlns="http://www.w3.org/2000/svg">
<path d="M7.36065 16C7.24997 16 7.15492 15.9603 7.0755 15.8809C6.99608 15.8014 6.95636 15.7064 6.95636 15.5957C6.95636 15.4849 6.99608 15.3898 7.0755 15.3104C7.15492 15.2309 7.24997 15.1912 7.36065 15.1912H7.59572V13.4198C6.95594 13.3523 6.37313 13.2067 5.8473 12.9831C5.32133 12.7595 4.84856 12.4651 4.42901 12.1L3.17587 13.352L3.36065 13.5312C3.43609 13.6067 3.47772 13.6978 3.48554 13.8047C3.49335 13.9117 3.45172 14.0107 3.36065 14.1018C3.27569 14.1866 3.17921 14.2276 3.07123 14.2249C2.96325 14.2222 2.86686 14.1784 2.78203 14.0935L1.89014 13.2148C1.80518 13.1299 1.76269 13.0341 1.76269 12.9273C1.76269 12.8206 1.80518 12.7219 1.89014 12.6313C1.97496 12.55 2.06859 12.5119 2.17103 12.517C2.27332 12.5221 2.37278 12.5658 2.46939 12.6481L2.61474 12.7934L3.86659 11.5416C3.48923 11.0749 3.19598 10.5925 2.98684 10.0945C2.7777 9.59653 2.64216 9.03312 2.58021 8.40428H0.808781V8.63935C0.808781 8.75003 0.769069 8.84508 0.689648 8.9245C0.610226 9.00393 0.515105 9.04364 0.404284 9.04364C0.293605 9.04364 0.198554 9.00393 0.119133 8.9245C0.0397108 8.84508 0 8.75003 0 8.63935V7.36065C0 7.24997 0.0397108 7.15492 0.119133 7.0755C0.198554 6.99608 0.293605 6.95637 0.404284 6.95637C0.515105 6.95637 0.610226 6.99608 0.689648 7.0755C0.769069 7.15492 0.808781 7.24997 0.808781 7.36065V7.59572H2.58021C2.64216 6.96688 2.78026 6.40119 2.99451 5.89866C3.20877 5.39613 3.50223 4.91605 3.8749 4.45842L2.62284 3.20656L2.46065 3.36875C2.37569 3.45073 2.28057 3.49157 2.17529 3.49129C2.07001 3.49086 1.97496 3.45002 1.89014 3.36875C1.80518 3.28393 1.76269 3.18667 1.76269 3.07699C1.76269 2.9673 1.80518 2.87005 1.89014 2.78523L2.78523 1.89014C2.87005 1.80518 2.96865 1.76269 3.08104 1.76269C3.19342 1.76269 3.2921 1.80518 3.37706 1.89014C3.45833 1.96558 3.49619 2.059 3.49065 2.17039C3.48525 2.28192 3.44192 2.37541 3.36065 2.45085L3.18419 2.62731L4.4371 3.8749C4.91108 3.4974 5.39251 3.205 5.8814 2.99771C6.37029 2.79042 6.93463 2.65125 7.5744 2.58021V0.808781H7.35617C7.24549 0.808781 7.15115 0.769069 7.07315 0.689648C6.99529 0.610226 6.95636 0.515105 6.95636 0.404284C6.95636 0.293605 6.99608 0.198555 7.0755 0.119133C7.15492 0.0397114 7.24997 0 7.36065 0H8.63935C8.75003 0 8.84508 0.0397114 8.9245 0.119133C9.00393 0.198555 9.04364 0.293605 9.04364 0.404284C9.04364 0.515105 9.00393 0.610226 8.9245 0.689648C8.84508 0.769069 8.75003 0.808781 8.63935 0.808781H8.40428V2.58021C9.04406 2.65125 9.6084 2.79042 10.0973 2.99771C10.5862 3.205 11.0676 3.4974 11.5416 3.8749L12.7934 2.62284L12.6372 2.46108C12.5483 2.38166 12.5024 2.28796 12.4995 2.17998C12.4966 2.072 12.5377 1.97539 12.6229 1.89014C12.7079 1.80518 12.8037 1.76269 12.9104 1.76269C13.0171 1.76269 13.113 1.80518 13.1979 1.89014L14.1186 2.81528C14.2036 2.9001 14.2446 2.99373 14.2416 3.09617C14.2387 3.19847 14.1948 3.2921 14.1099 3.37706C14.025 3.45833 13.9306 3.49463 13.8266 3.48596C13.7226 3.47744 13.6252 3.43076 13.5344 3.34594L13.3727 3.18419L12.1251 4.4371C12.5026 4.90383 12.7973 5.39109 13.0091 5.89888C13.2209 6.40666 13.3578 6.97228 13.4198 7.59572H15.1912V7.36065C15.1912 7.24997 15.2309 7.15492 15.3104 7.0755C15.3898 6.99608 15.4849 6.95637 15.5957 6.95637C15.7064 6.95637 15.8014 6.99608 15.8809 7.0755C15.9603 7.15492 16 7.24997 16 7.36065V8.63935C16 8.75003 15.9603 8.84508 15.8809 8.9245C15.8014 9.00393 15.7064 9.04364 15.5957 9.04364C15.4849 9.04364 15.3898 9.00393 15.3104 8.9245C15.2309 8.84508 15.1912 8.75003 15.1912 8.63935V8.40428H13.4198C13.3578 9.03312 13.2209 9.59874 13.0091 10.1011C12.7973 10.6035 12.5026 11.088 12.1251 11.5546L13.3727 12.8077L13.5487 12.6317C13.63 12.5504 13.724 12.5088 13.8307 12.5068C13.9374 12.5048 14.0332 12.5435 14.1182 12.6229C14.203 12.7024 14.2454 12.7996 14.2454 12.9147C14.2454 13.0299 14.203 13.1299 14.1182 13.2148L13.2231 14.1099C13.1381 14.1948 13.0394 14.2373 12.9271 14.2373C12.8147 14.2373 12.7161 14.1948 12.6313 14.1099C12.546 14.0246 12.5079 13.9294 12.517 13.8243C12.5261 13.7193 12.564 13.6272 12.6306 13.5481L12.7934 13.3772L11.5416 12.1251C11.1077 12.4843 10.6376 12.7752 10.1314 12.9978C9.62516 13.2205 9.04946 13.3654 8.40428 13.4328V15.1912H8.63935C8.75003 15.1912 8.84508 15.2309 8.9245 15.3104C9.00393 15.3898 9.04364 15.4849 9.04364 15.5957C9.04364 15.7064 9.00393 15.8014 8.9245 15.8809C8.84508 15.9603 8.75003 16 8.63935 16H7.36065ZM8 12.3661C9.21207 12.3661 10.2428 11.94 11.0921 11.0876C11.9415 10.2355 12.3661 9.20624 12.3661 8C12.3661 6.78793 11.9415 5.75722 11.0921 4.90788C10.2428 4.05854 9.21207 3.63386 8 3.63386C6.79376 3.63386 5.76454 4.05854 4.91236 4.90788C4.06003 5.75722 3.63386 6.78793 3.63386 8C3.63386 9.20624 4.06003 10.2355 4.91236 11.0876C5.76454 11.94 6.79376 12.3661 8 12.3661ZM6.59023 11.1258C6.76612 11.1258 6.91843 11.0614 7.04715 10.9325C7.17602 10.8038 7.24045 10.6514 7.24045 10.4754C7.24045 10.2995 7.17602 10.1472 7.04715 10.0184C6.91843 9.88957 6.76612 9.82514 6.59023 9.82514C6.41419 9.82514 6.26181 9.88957 6.13309 10.0184C6.00423 10.1472 5.93979 10.2995 5.93979 10.4754C5.93979 10.6514 6.00423 10.8038 6.13309 10.9325C6.26181 11.0614 6.41419 11.1258 6.59023 11.1258ZM9.40977 11.1258C9.59163 11.1258 9.7455 11.0614 9.87138 10.9325C9.99726 10.8038 10.0602 10.6514 10.0602 10.4754C10.0602 10.2995 9.99726 10.1472 9.87138 10.0184C9.7455 9.88957 9.59163 9.82514 9.40977 9.82514C9.23388 9.82514 9.08157 9.88957 8.95285 10.0184C8.82398 10.1472 8.75955 10.2995 8.75955 10.4754C8.75955 10.6514 8.82398 10.8038 8.95285 10.9325C9.08157 11.0614 9.23388 11.1258 9.40977 11.1258ZM5.09841 8.65022C5.28013 8.65022 5.43393 8.58586 5.55981 8.45714C5.68569 8.32827 5.74863 8.17589 5.74863 8C5.74863 7.82411 5.68569 7.67173 5.55981 7.54286C5.43393 7.41414 5.28013 7.34978 5.09841 7.34978C4.92237 7.34978 4.76999 7.41414 4.64127 7.54286C4.51241 7.67173 4.44797 7.82411 4.44797 8C4.44797 8.17589 4.51241 8.32827 4.64127 8.45714C4.76999 8.58586 4.92237 8.65022 5.09841 8.65022ZM8 8.65022C8.17589 8.65022 8.32827 8.58586 8.45714 8.45714C8.58586 8.32827 8.65022 8.17589 8.65022 8C8.65022 7.82411 8.58586 7.67173 8.45714 7.54286C8.32827 7.41414 8.17589 7.34978 8 7.34978C7.82411 7.34978 7.67173 7.41414 7.54286 7.54286C7.41414 7.67173 7.34978 7.82411 7.34978 8C7.34978 8.17589 7.41414 8.32827 7.54286 8.45714C7.67173 8.58586 7.82411 8.65022 8 8.65022ZM10.9016 8.65022C11.0835 8.65022 11.2373 8.58586 11.3632 8.45714C11.4891 8.32827 11.552 8.17589 11.552 8C11.552 7.82411 11.4891 7.67173 11.3632 7.54286C11.2373 7.41414 11.0835 7.34978 10.9016 7.34978C10.7257 7.34978 10.5734 7.41414 10.4447 7.54286C10.3158 7.67173 10.2514 7.82411 10.2514 8C10.2514 8.17589 10.3158 8.32827 10.4447 8.45714C10.5734 8.58586 10.7257 8.65022 10.9016 8.65022ZM6.59023 6.17486C6.76612 6.17486 6.91843 6.11043 7.04715 5.98156C7.17602 5.85284 7.24045 5.70053 7.24045 5.52464C7.24045 5.34861 7.17602 5.19623 7.04715 5.06751C6.91843 4.93864 6.76612 4.87421 6.59023 4.87421C6.41419 4.87421 6.26181 4.93864 6.13309 5.06751C6.00423 5.19623 5.93979 5.34861 5.93979 5.52464C5.93979 5.70053 6.00423 5.85284 6.13309 5.98156C6.26181 6.11043 6.41419 6.17486 6.59023 6.17486ZM9.40977 6.17486C9.59163 6.17486 9.7455 6.11043 9.87138 5.98156C9.99726 5.85284 10.0602 5.70053 10.0602 5.52464C10.0602 5.34861 9.99726 5.19623 9.87138 5.06751C9.7455 4.93864 9.59163 4.87421 9.40977 4.87421C9.23388 4.87421 9.08157 4.93864 8.95285 5.06751C8.82398 5.19623 8.75955 5.34861 8.75955 5.52464C8.75955 5.70053 8.82398 5.85284 8.95285 5.98156C9.08157 6.11043 9.23388 6.17486 9.40977 6.17486Z" fill="#2D2D2D"/>
</svg>
